# xmcd
#
# Track frame offsets: 
#        150
#        18787
#        34930
#        52783
#        64562
#        83372
#        95007
#        110030
#        121992
#        142247
#        155672
#        180272
#        195909
#        210384
#
# Disc length: 3032 seconds
#
# Revision: 0
# Processed by: cddbd v1.5.2PL0 Copyright (c) Steve Scherf et al.
# Submitted via: ExactAudioCopy v1.2
#
DISCID=ad0bd60e
DTITLE=B.B. and The Blues Shacks - Reservation Blues
DYEAR=2017
DGENRE=Blues
TTITLE0=Reservation Blues
TTITLE1=Lay Some Shuffle Down
TTITLE2=Mad About You
TTITLE3=I Can't Go On
TTITLE4=Year Of Strife
TTITLE5=From Now On
TTITLE6=Angry Cat
TTITLE7=Not Much To Loose
TTITLE8=Honeycomb
TTITLE9=All About That
TTITLE10=My Time Ain't Long
TTITLE11=Little Secrets
TTITLE12=Things Won't Change
TTITLE13=Why Can't I Go Home
EXTD=
EXTT0=
EXTT1=
EXTT2=
EXTT3=
EXTT4=
EXTT5=
EXTT6=
EXTT7=
EXTT8=
EXTT9=
EXTT10=
EXTT11=
EXTT12=
EXTT13=
PLAYORDER=
